# xmcd CD database file
#
# Track frame offsets:
#	150
#	12664
#	29432
#	53852
#
# Disc length: 1275 seconds
#
# Revision: 0
# Processed by: cddbd v1.5.2PL0 Copyright (c) Steve Scherf et al.
# Submitted via: CDex 1.51
#
DISCID=2f04f904
DTITLE=Shana Tesch - Boum Boum Boum
DYEAR=2006
DGENRE=Salsa
TTITLE0=Boum Boum Boum
TTITLE1=Nunca Mas
TTITLE2=Boum Boum Boum
TTITLE3=Boum Boum Boum
EXTD=YEAR: 2006
EXTT0=
EXTT1=
EXTT2=
EXTT3=
PLAYORDER=
